# xmcd
#
# Track frame offsets:
#	150
#	18497
#	40541
#	63075
#	79770
#	98192
#	114781
#	130612
#	147072
#	160804
#	181864
#	198320
#	216630
#	233066
#	249670
#	264216
#	281377
#	300802
#	316587
#	332869
#	346471
#
# Disc length: 4760 seconds
#
# Revision: 1
# Processed by: cddbd v1.5.2PL0 Copyright (c) Steve Scherf et al.
# Submitted via: audiograbber 1.83.01
#
DISCID=0f129615
DTITLE=Various Artist - Country Lovin - Disc One
DYEAR=2006
DGENRE=Country
TTITLE0=Trisha Yearwood - How Do I Live
TTITLE1=Brooks and Dunn - You`re Gonna Miss Me When I`m Gone
TTITLE2=Troy Casser-Daley - Everything I Do
TTITLE3=Mary Chapin Carpenter - Shut Up And Kiss ME
TTITLE4=Adam Brand - Infinity
TTITLE5=Kenny Chesney - Me And You
TTITLE6=Melinda Schneider - Whish You Were Here (Live)
TTITLE7=Toby Keith - You Shouldn`t Kiss Me Like This
TTITLE8=Alabama - How Do You Fall In Love
TTITLE9=Beccy Cole - This Time
TTITLE10=Travis Tritt - Love Of A Woman
TTITLE11=Mike Carr - She`s Gone
TTITLE12=Terri Clark - Now That I Found You
TTITLE13=Brendon Walmsley - Still Falling
TTITLE14=Martina McBride - Valentine
TTITLE15=Catherine Britt - Too Far Gone
TTITLE16=Travis Sinclair - Rush
TTITLE17=Deana Carter - Absence Of My Heart
TTITLE18=Anne Murray - You Needed Me
TTITLE19=John Denver - Annie`s Song
TTITLE20=Dolly Parton - Love Is Like A Butterfly
EXTD=
EXTT0=
EXTT1=
EXTT2=
EXTT3=
EXTT4=
EXTT5=
EXTT6=
EXTT7=
EXTT8=
EXTT9=
EXTT10=
EXTT11=
EXTT12=
EXTT13=
EXTT14=
EXTT15=
EXTT16=
EXTT17=
EXTT18=
EXTT19=
EXTT20=
PLAYORDER=
